<svg id="Layer_1" data-name="Layer 1" xmlns="http://www.w3.org/2000/svg" viewBox="0 0 60 60"><defs><style>.cls-1{fill:#03989e;}.cls-2{fill:#fefefe;}</style></defs><circle class="cls-1" cx="30" cy="30" r="30"/><path class="cls-2" d="M17.6,35.44V23.55a12.39,12.39,0,0,1,5.06-10.09,12.17,12.17,0,0,1,4.54-2.18,1.83,1.83,0,0,1,2.49,1.91c0,8,0,16,0,24.07a12.8,12.8,0,0,1-9.58,12.33l-.64.16a1.45,1.45,0,0,1-1.87-1.47Z"/><path class="cls-2" d="M32,23.54c0-3.4,0-6.81,0-10.21a2,2,0,0,1,2.63-2c5.15,1.61,8.46,5,9.28,10.32,1.09,7.16-3,12.51-9.09,14.4A2,2,0,0,1,32,33.89Z"/></svg>