<svg width="204" height="36" viewBox="0 0 204 36" fill="none" xmlns="http://www.w3.org/2000/svg">
<path d="M43.2261 27.692V8.30741H50.3661C51.9099 8.30741 53.1872 8.56587 54.198 9.08279C55.2087 9.59971 55.9623 10.3105 56.4585 11.2151C56.9547 12.1197 57.2028 13.1351 57.2028 14.2613C57.2028 15.332 56.964 16.3198 56.4861 17.2243C56.0082 18.1105 55.2639 18.8305 54.2531 19.3843C53.2423 19.9198 51.9467 20.1874 50.3661 20.1874H46.7547V27.692H43.2261ZM46.7547 17.3074H50.1455C51.3768 17.3074 52.259 17.0398 52.792 16.5043C53.3434 15.9505 53.619 15.2028 53.619 14.2613C53.619 13.3013 53.3434 12.5536 52.792 12.0182C52.259 11.4643 51.3768 11.1874 50.1455 11.1874H46.7547V17.3074ZM58.7858 27.692V13.9566H61.9285L62.2593 16.532C62.7555 15.6459 63.4263 14.9443 64.2717 14.4274C65.1355 13.892 66.1463 13.6243 67.3041 13.6243V17.3628H66.3117C65.5398 17.3628 64.8506 17.4828 64.2441 17.7228C63.6377 17.9627 63.1599 18.3781 62.8106 18.9689C62.4798 19.5598 62.3144 20.3812 62.3144 21.4336V27.692H58.7858ZM74.932 28.0243C73.6087 28.0243 72.4142 27.7197 71.3482 27.1105C70.3006 26.5012 69.4645 25.6612 68.8395 24.5905C68.233 23.5012 67.9298 22.2459 67.9298 20.8243C67.9298 19.4027 68.2423 18.1566 68.8671 17.0859C69.492 15.9966 70.3282 15.1474 71.3757 14.5382C72.4418 13.9289 73.6363 13.6243 74.9595 13.6243C76.2644 13.6243 77.4406 13.9289 78.4882 14.5382C79.5542 15.1474 80.3903 15.9966 80.9968 17.0859C81.6218 18.1566 81.9341 19.4027 81.9341 20.8243C81.9341 22.2459 81.6218 23.5012 80.9968 24.5905C80.3903 25.6612 79.5542 26.5012 78.4882 27.1105C77.4223 27.7197 76.2369 28.0243 74.932 28.0243ZM74.932 24.9505C75.8509 24.9505 76.6504 24.6089 77.3303 23.9259C78.0104 23.2243 78.3503 22.1905 78.3503 20.8243C78.3503 19.4581 78.0104 18.4335 77.3303 17.7505C76.6504 17.0489 75.8602 16.6982 74.9595 16.6982C74.0222 16.6982 73.2137 17.0489 72.5336 17.7505C71.8719 18.4335 71.5411 19.4581 71.5411 20.8243C71.5411 22.1905 71.8719 23.2243 72.5336 23.9259C73.2137 24.6089 74.0131 24.9505 74.932 24.9505ZM89.5404 27.692C88.1069 27.692 86.9583 27.3413 86.0945 26.6397C85.2308 25.9381 84.7988 24.692 84.7988 22.9013V16.9197H82.4556V13.9566H84.7988L85.2123 10.2736H88.3274V13.9566H92.0215V16.9197H88.3274V22.9289C88.3274 23.5936 88.4653 24.055 88.741 24.3136C89.0351 24.5535 89.5313 24.6736 90.2296 24.6736H91.9388V27.692H89.5404ZM100.242 28.0243C98.8639 28.0243 97.6417 27.729 96.5758 27.1382C95.5099 26.5474 94.6736 25.7166 94.0671 24.6459C93.4607 23.5751 93.1574 22.3381 93.1574 20.9351C93.1574 19.5135 93.4514 18.2489 94.0396 17.1413C94.6461 16.0336 95.4731 15.1751 96.5207 14.5659C97.5866 13.9382 98.8363 13.6243 100.27 13.6243C101.611 13.6243 102.797 13.9197 103.826 14.5105C104.855 15.1013 105.655 15.9135 106.224 16.9474C106.813 17.9627 107.107 19.0981 107.107 20.3536C107.107 20.5567 107.097 20.7689 107.079 20.9905C107.079 21.212 107.07 21.4428 107.051 21.6828H96.6585C96.732 22.7535 97.0996 23.5936 97.7612 24.2028C98.4412 24.812 99.2591 25.1166 100.215 25.1166C100.931 25.1166 101.529 24.9598 102.007 24.6459C102.503 24.3136 102.87 23.8889 103.109 23.372H106.693C106.436 24.2398 106.004 25.0336 105.397 25.7536C104.809 26.4551 104.074 27.009 103.192 27.4151C102.328 27.8212 101.345 28.0243 100.242 28.0243ZM100.27 16.5043C99.406 16.5043 98.6434 16.7536 97.9817 17.252C97.3201 17.7321 96.8974 18.4705 96.7136 19.4674H103.523C103.468 18.5628 103.137 17.8428 102.53 17.3074C101.924 16.772 101.17 16.5043 100.27 16.5043ZM115.671 28.0243C114.274 28.0243 113.042 27.7197 111.977 27.1105C110.911 26.5012 110.065 25.6521 109.44 24.5628C108.834 23.4735 108.531 22.2274 108.531 20.8243C108.531 19.4213 108.834 18.1751 109.44 17.0859C110.065 15.9966 110.911 15.1474 111.977 14.5382C113.042 13.9289 114.274 13.6243 115.671 13.6243C117.417 13.6243 118.887 14.0858 120.081 15.0089C121.276 15.9135 122.039 17.1689 122.37 18.7751H118.648C118.464 18.1105 118.097 17.5936 117.545 17.2243C117.012 16.8366 116.378 16.6428 115.643 16.6428C114.669 16.6428 113.842 17.0121 113.162 17.7505C112.482 18.4889 112.142 19.5135 112.142 20.8243C112.142 22.1351 112.482 23.1598 113.162 23.8982C113.842 24.6366 114.669 25.0059 115.643 25.0059C116.378 25.0059 117.012 24.8213 117.545 24.452C118.097 24.0827 118.464 23.5566 118.648 22.8736H122.37C122.039 24.4243 121.276 25.6705 120.081 26.612C118.887 27.5536 117.417 28.0243 115.671 28.0243ZM130.303 27.692C128.869 27.692 127.721 27.3413 126.857 26.6397C125.993 25.9381 125.561 24.692 125.561 22.9013V16.9197H123.218V13.9566H125.561L125.975 10.2736H129.09V13.9566H132.784V16.9197H129.09V22.9289C129.09 23.5936 129.228 24.055 129.503 24.3136C129.797 24.5535 130.294 24.6736 130.992 24.6736H132.701V27.692H130.303ZM143.835 28.0243C141.906 28.0243 140.216 27.5997 138.763 26.7505C137.33 25.9013 136.2 24.7289 135.372 23.2336C134.564 21.7198 134.159 19.9751 134.159 17.9997C134.159 16.0243 134.564 14.2889 135.372 12.7936C136.2 11.2797 137.33 10.0982 138.763 9.24894C140.216 8.39972 141.906 7.9751 143.835 7.9751C145.747 7.9751 147.429 8.39972 148.88 9.24894C150.333 10.0982 151.463 11.2797 152.271 12.7936C153.08 14.2889 153.484 16.0243 153.484 17.9997C153.484 19.9751 153.08 21.7198 152.271 23.2336C151.463 24.7289 150.333 25.9013 148.88 26.7505C147.429 27.5997 145.747 28.0243 143.835 28.0243ZM143.835 24.8397C145.674 24.8397 147.135 24.2305 148.219 23.012C149.321 21.7936 149.873 20.1227 149.873 17.9997C149.873 15.8767 149.321 14.2059 148.219 12.9874C147.135 11.7689 145.674 11.1597 143.835 11.1597C141.998 11.1597 140.527 11.7689 139.424 12.9874C138.322 14.2059 137.771 15.8767 137.771 17.9997C137.771 20.1227 138.322 21.7936 139.424 23.012C140.527 24.2305 141.998 24.8397 143.835 24.8397ZM155.415 27.692V13.9566H158.53L158.806 16.2828C159.228 15.4704 159.834 14.8244 160.625 14.3443C161.433 13.8643 162.38 13.6243 163.465 13.6243C165.155 13.6243 166.47 14.1598 167.407 15.2305C168.344 16.3012 168.813 17.8705 168.813 19.9382V27.692H165.284V20.2705C165.284 19.089 165.044 18.1843 164.567 17.5566C164.089 16.929 163.345 16.6151 162.335 16.6151C161.342 16.6151 160.523 16.9658 159.881 17.6674C159.255 18.369 158.944 19.3474 158.944 20.6028V27.692H155.415ZM177.783 28.0243C176.386 28.0243 175.155 27.7197 174.089 27.1105C173.022 26.5012 172.178 25.6521 171.553 24.5628C170.947 23.4735 170.643 22.2274 170.643 20.8243C170.643 19.4213 170.947 18.1751 171.553 17.0859C172.178 15.9966 173.022 15.1474 174.089 14.5382C175.155 13.9289 176.386 13.6243 177.783 13.6243C179.528 13.6243 180.999 14.0858 182.194 15.0089C183.388 15.9135 184.151 17.1689 184.482 18.7751H180.761C180.576 18.1105 180.209 17.5936 179.658 17.2243C179.125 16.8366 178.491 16.6428 177.756 16.6428C176.781 16.6428 175.954 17.0121 175.275 17.7505C174.594 18.4889 174.255 19.5135 174.255 20.8243C174.255 22.1351 174.594 23.1598 175.275 23.8982C175.954 24.6366 176.781 25.0059 177.756 25.0059C178.491 25.0059 179.125 24.8213 179.658 24.452C180.209 24.0827 180.576 23.5566 180.761 22.8736H184.482C184.151 24.4243 183.388 25.6705 182.194 26.612C180.999 27.5536 179.528 28.0243 177.783 28.0243ZM193.155 28.0243C191.777 28.0243 190.554 27.729 189.489 27.1382C188.422 26.5474 187.586 25.7166 186.98 24.6459C186.373 23.5751 186.07 22.3381 186.07 20.9351C186.07 19.5135 186.364 18.2489 186.952 17.1413C187.559 16.0336 188.386 15.1751 189.433 14.5659C190.499 13.9382 191.749 13.6243 193.183 13.6243C194.524 13.6243 195.709 13.9197 196.739 14.5105C197.767 15.1013 198.567 15.9135 199.137 16.9474C199.724 17.9627 200.019 19.0981 200.019 20.3536C200.019 20.5567 200.01 20.7689 199.992 20.9905C199.992 21.212 199.982 21.4428 199.964 21.6828H189.571C189.644 22.7535 190.012 23.5936 190.674 24.2028C191.354 24.812 192.171 25.1166 193.127 25.1166C193.844 25.1166 194.441 24.9598 194.919 24.6459C195.416 24.3136 195.782 23.8889 196.022 23.372H199.606C199.348 24.2398 198.917 25.0336 198.31 25.7536C197.722 26.4551 196.987 27.009 196.105 27.4151C195.241 27.8212 194.258 28.0243 193.155 28.0243ZM193.183 16.5043C192.318 16.5043 191.556 16.7536 190.895 17.252C190.233 17.7321 189.81 18.4705 189.626 19.4674H196.436C196.38 18.5628 196.05 17.8428 195.443 17.3074C194.837 16.772 194.083 16.5043 193.183 16.5043Z" fill="#072B2D"/>
<path d="M17.9193 1.28369C17.6471 1.28369 17.375 1.29017 17.1027 1.30373C16.8305 1.31728 16.5595 1.33732 16.2885 1.36442C16.0174 1.39094 15.747 1.42453 15.4778 1.4646C15.2079 1.50467 14.9398 1.55122 14.6729 1.60485C14.4059 1.65847 14.1402 1.718 13.8757 1.78458C13.6117 1.85117 13.3494 1.92425 13.0884 2.00322C12.8279 2.08276 12.5698 2.1688 12.3129 2.26073C12.0565 2.35325 11.8025 2.45165 11.5508 2.55595C11.2997 2.66085 11.0504 2.77164 10.8046 2.88891C10.5582 3.00558 10.3148 3.12874 10.0749 3.2578C9.83433 3.38627 9.59793 3.52121 9.36387 3.66205C9.13038 3.8023 8.90043 3.94903 8.67399 4.10107C8.44755 4.2531 8.22522 4.41044 8.0064 4.57309C7.78758 4.73632 7.57287 4.90426 7.36227 5.0781C7.15168 5.25194 6.94576 5.4305 6.74397 5.61377C6.54216 5.79762 6.34505 5.98619 6.15205 6.17948C5.95964 6.37335 5.77192 6.57135 5.58889 6.77407C5.40645 6.97678 5.22869 7.18362 5.05563 7.39517C4.88258 7.60673 4.7154 7.82241 4.5529 8.04222C4.39098 8.26201 4.23435 8.48535 4.08301 8.71281C3.93165 8.94028 3.78558 9.17129 3.64597 9.40581C3.50576 9.64095 3.37142 9.87842 3.24353 10.12C3.11506 10.361 2.99246 10.6056 2.87631 10.8531C2.75956 11.1 2.64927 11.3505 2.54486 11.6027C2.44103 11.8555 2.34305 12.1106 2.25095 12.3682C2.15944 12.6263 2.07379 12.8855 1.9946 13.1472C1.91599 13.4094 1.84324 13.6728 1.77695 13.9381C1.71067 14.2038 1.65141 14.4707 1.59804 14.7388C1.54466 15.007 1.4983 15.2763 1.45841 15.5474C1.41852 15.8178 1.38508 16.0895 1.35869 16.3617C1.3317 16.6341 1.31176 16.9063 1.29827 17.1797C1.28477 17.4531 1.27832 17.7265 1.27832 18C1.27832 18.2734 1.28477 18.5468 1.29827 18.8202C1.31176 19.0937 1.3317 19.3659 1.35869 19.6381C1.38508 19.9105 1.41852 20.1821 1.45841 20.4526C1.4983 20.7237 1.54466 20.993 1.59804 21.261C1.65141 21.5292 1.71067 21.7962 1.77695 22.0619C1.84324 22.327 1.91599 22.5905 1.9946 22.8528C2.07379 23.1143 2.15944 23.3737 2.25095 23.6318C2.34305 23.8893 2.44103 24.1445 2.54486 24.3972C2.64927 24.6495 2.75956 24.8999 2.87631 25.1468C2.99246 25.3944 3.11506 25.6389 3.24353 25.8798C3.37142 26.1214 3.50576 26.359 3.64597 26.5942C3.78558 26.8287 3.93165 27.0597 4.08301 27.2872C4.23435 27.5145 4.39098 27.7378 4.5529 27.9577C4.7154 28.1775 4.88258 28.3932 5.05563 28.6048C5.22869 28.8163 5.40645 29.0232 5.58889 29.2259C5.77192 29.4286 5.95964 29.6266 6.15205 29.8204C6.34505 30.0137 6.54216 30.2023 6.74397 30.3862C6.94576 30.5694 7.15168 30.748 7.36227 30.9218C7.57287 31.0957 7.78758 31.2636 8.0064 31.4269C8.22522 31.5894 8.44755 31.7469 8.67399 31.8989C8.90043 32.0509 9.13038 32.1977 9.36387 32.3378C9.59793 32.4788 9.83433 32.6136 10.0749 32.7421C10.3148 32.8712 10.5582 32.9944 10.8046 33.111C11.0504 33.2283 11.2997 33.339 11.5508 33.444C11.8025 33.5482 12.0565 33.6467 12.3129 33.7392C12.5698 33.8311 12.8279 33.9171 13.0884 33.9967C13.3494 34.0756 13.6117 34.1488 13.8757 34.2154C14.1402 34.282 14.4059 34.3415 14.6729 34.3951C14.9398 34.4487 15.2079 34.4953 15.4778 34.5353C15.747 34.5754 16.0174 34.609 16.2885 34.6354C16.5595 34.6626 16.8305 34.6827 17.1027 34.6962C17.375 34.7098 17.6471 34.7162 17.9193 34.7162C18.1915 34.7162 18.4637 34.7098 18.7358 34.6962C19.0081 34.6827 19.2791 34.6626 19.5502 34.6354C19.8212 34.609 20.0916 34.5754 20.3608 34.5353C20.6307 34.4953 20.8988 34.4487 21.1658 34.3951C21.4326 34.3415 21.6984 34.282 21.9629 34.2154C22.227 34.1488 22.4892 34.0756 22.7497 33.9967C23.0106 33.9171 23.2688 33.8311 23.5257 33.7392C23.7821 33.6467 24.0361 33.5482 24.2878 33.444C24.5388 33.339 24.7882 33.2283 25.0339 33.111C25.2804 32.9944 25.5238 32.8712 25.7638 32.7421C26.0043 32.6136 26.2407 32.4788 26.4747 32.3378C26.7082 32.1977 26.9381 32.0509 27.1646 31.8989C27.3911 31.7469 27.6134 31.5894 27.8322 31.4269C28.0511 31.2636 28.2657 31.0957 28.4763 30.9218C28.6869 30.748 28.8928 30.5694 29.0946 30.3862C29.2964 30.2023 29.4935 30.0137 29.6859 29.8204C29.8789 29.6266 30.0667 29.4286 30.2497 29.2259C30.4322 29.0232 30.6099 28.8163 30.783 28.6048C30.9554 28.3932 31.1232 28.1775 31.2857 27.9577C31.4477 27.7378 31.6042 27.5145 31.7556 27.2872C31.9069 27.0597 32.053 26.8287 32.1927 26.5942C32.3328 26.359 32.4671 26.1214 32.595 25.8798C32.7235 25.6389 32.8462 25.3944 32.9622 25.1468C33.079 24.8999 33.1894 24.6495 33.2937 24.3972C33.3975 24.1445 33.4955 23.8893 33.5876 23.6318C33.6791 23.3737 33.7648 23.1143 33.844 22.8528C33.9225 22.5905 33.9953 22.327 34.0616 22.0619C34.1279 21.7962 34.1872 21.5292 34.2405 21.261C34.2939 20.993 34.3403 20.7237 34.3802 20.4526C34.4201 20.1821 34.4535 19.9105 34.4799 19.6381C34.5068 19.3659 34.5268 19.0937 34.5403 18.8202C34.5538 18.5468 34.5603 18.2734 34.5603 18C34.5603 17.7265 34.5538 17.4531 34.5403 17.1797C34.5268 16.9063 34.5068 16.6341 34.4799 16.3617C34.4535 16.0895 34.4201 15.8178 34.3802 15.5474C34.3403 15.2763 34.2939 15.007 34.2405 14.7388C34.1872 14.4707 34.1279 14.2038 34.0616 13.9381C33.9953 13.6728 33.9225 13.4094 33.844 13.1472C33.7648 12.8855 33.6791 12.6263 33.5876 12.3682C33.4955 12.1106 33.3975 11.8555 33.2937 11.6027C33.1894 11.3505 33.079 11.1 32.9622 10.8531C32.8462 10.6056 32.7235 10.361 32.595 10.12C32.4671 9.87842 32.3328 9.64095 32.1927 9.40581C32.053 9.17129 31.9069 8.94028 31.7556 8.71281C31.6042 8.48535 31.4477 8.26201 31.2857 8.04222C31.1232 7.82241 30.9554 7.60673 30.783 7.39517C30.6099 7.18362 30.4322 6.97678 30.2497 6.77407C30.0667 6.57135 29.8789 6.37335 29.6859 6.17948C29.4935 5.98619 29.2964 5.79762 29.0946 5.61377C28.8928 5.4305 28.6869 5.25194 28.4763 5.0781C28.2657 4.90426 28.0511 4.73632 27.8322 4.57309C27.6134 4.41044 27.3911 4.2531 27.1646 4.10107C26.9381 3.94903 26.7082 3.8023 26.4747 3.66205C26.2407 3.52121 26.0043 3.38627 25.7638 3.2578C25.5238 3.12874 25.2804 3.00558 25.0339 2.88891C24.7882 2.77164 24.5388 2.66085 24.2878 2.55595C24.0361 2.45165 23.7821 2.35325 23.5257 2.26073C23.2688 2.1688 23.0106 2.08276 22.7502 2.00322C22.4892 1.92425 22.227 1.85117 21.9629 1.78458C21.6984 1.718 21.4326 1.65847 21.1658 1.60485C20.8988 1.55122 20.6307 1.50467 20.3608 1.4646C20.0916 1.42453 19.8212 1.39094 19.5502 1.36442C19.2791 1.33732 19.0081 1.31728 18.7358 1.30373C18.4637 1.29017 18.1915 1.28369 17.9193 1.28369Z" fill="#03989E"/>
<path d="M20.4999 21.3862C19.769 21.5949 19.0416 21.0416 19.0416 20.2784V8.53454C19.0416 7.87868 19.6499 7.3878 20.2864 7.53866C23.4248 8.28056 25.768 11.1133 25.768 14.4852C25.768 17.7493 23.5727 20.5077 20.4999 21.3862ZM17.7581 22.0092V8.53454C17.7581 7.87868 17.1496 7.3878 16.5132 7.53866C13.3747 8.27998 11.0317 11.1133 11.0317 14.4852V28.2102C11.0317 28.7253 11.5005 29.1124 12.0044 29.0139C15.2789 28.3763 17.7581 25.4776 17.7581 22.0092Z" fill="white"/>
</svg>
